<svg xmlns="http://www.w3.org/2000/svg" width="48.12" height="39.466" viewBox="0 0 48.12 39.466"><defs><style>.a{fill:#1b2450;}</style></defs><g transform="translate(0)"><path class="a" d="M-37.042,2061.813q0-8.7,0-17.411a2.126,2.126,0,0,1,1.558-2.229,1.95,1.95,0,0,1,.518-.075c1.5,0,3-.045,4.492.01a2.093,2.093,0,0,1,2.09,2.175c0,.055,0,.109,0,.162v34.7a2.168,2.168,0,0,1-1.56,2.282,1.85,1.85,0,0,1-.555.088c-1.552,0-3.1.022-4.655-.028a2.056,2.056,0,0,1-1.883-1.941c-.01-.189-.008-.378-.008-.567Z" transform="translate(63.519 -2042.079)"/><path class="a" d="M-36.451,2062.891q0,5.971,0,11.942a2.1,2.1,0,0,1-1.51,2.146,1.79,1.79,0,0,1-.553.092c-1.5.008-3,.048-4.492,0a2.111,2.111,0,0,1-2.1-2.21c0-.067,0-.134,0-.2q0-11.759,0-23.521a2.192,2.192,0,0,1,1.219-2.192,2.615,2.615,0,0,1,1.048-.231c1.376-.026,2.752-.015,4.13-.01a2.129,2.129,0,0,1,2.264,2.249Q-36.445,2056.921-36.451,2062.891Z" transform="translate(58.095 -2037.636)"/><path class="a" d="M-20.61,2063.112v10.851a2.109,2.109,0,0,1-2.138,2.333c-1.508.05-3.023.038-4.531-.017a2.084,2.084,0,0,1-1.993-2.14c-.01-1.039,0-2.078,0-3.118,0-6.261.015-12.524-.013-18.786a2.262,2.262,0,0,1,2.356-2.389c1.336.044,2.673,0,4.009.01a2.145,2.145,0,0,1,2.312,2.324Z" transform="translate(68.73 -2036.861)"/><path class="a" d="M-52.877,2063.9q0-3.3,0-6.6a2.123,2.123,0,0,1,2.212-2.257q2.127-.023,4.252,0a2.128,2.128,0,0,1,2.2,2.234q.005,6.661,0,13.318a2.084,2.084,0,0,1-2.016,2.2c-1.535.055-3.076.057-4.611,0a2.082,2.082,0,0,1-2.035-2.22Q-52.882,2067.238-52.877,2063.9Z" transform="translate(52.879 -2033.376)"/></g></svg>