<svg xmlns="http://www.w3.org/2000/svg" width="44" height="39.479" viewBox="0 0 44 39.479"><defs><style>.a{fill:#1b2450;}</style></defs><g transform="translate(-46 -383)"><g transform="translate(46 383)"><path class="a" d="M-336.034,1698.7a3.656,3.656,0,0,0-3.533-2.445c-1.429-.01-2.859,0-4.288,0h-.519v-4.9A4.981,4.981,0,0,0-339.45,1686a4.939,4.939,0,0,0-4.633-4.548,4.686,4.686,0,0,0-3.846,1.666,4.908,4.908,0,0,0-1.154,4.109c-.191-.128-.316-.206-.436-.29q-2.028-1.427-4.055-2.857a3.636,3.636,0,0,0-4.989.461c-1.72,1.742-3.442,3.481-5.144,5.241a5.141,5.141,0,0,0-.832,1.15,3.684,3.684,0,0,0,.872,4.4,3.475,3.475,0,0,0,4.57.122c1.18-1.06,2.264-2.232,3.391-3.354.1-.1.211-.2.326-.309l1.794,1.319c-.154.132-.265.211-.359.308q-10.287,10.453-20.571,20.909a8.4,8.4,0,0,0-.592.674,3.72,3.72,0,0,0,1.651,5.688,3.608,3.608,0,0,0,3.988-1.026q5.735-5.832,11.469-11.666a1.787,1.787,0,0,0,.235-.411l2.278,2.313a2.793,2.793,0,0,0-.366.266c-1.424,1.441-2.852,2.878-4.263,4.333a3.72,3.72,0,0,0,.919,6.063,3.631,3.631,0,0,0,4.258-.865q3.511-3.557,7.008-7.128a4.273,4.273,0,0,0,.677-.864,3.708,3.708,0,0,0-.656-4.619c-1.414-1.451-2.841-2.89-4.261-4.335-.1-.1-.2-.214-.251-.27l1.081-1.178c.041.079.079.149.115.222a3.5,3.5,0,0,0,3.222,2.111c2.859.039,5.72.051,8.578,0A3.659,3.659,0,0,0-336.034,1698.7Zm-8.253-14.781a2.465,2.465,0,0,1,2.41,2.477,2.467,2.467,0,0,1-2.437,2.451,2.468,2.468,0,0,1-2.41-2.479A2.464,2.464,0,0,1-344.286,1683.915Zm-10.234,5.468a1.332,1.332,0,0,0-2.12.181c-1.24,1.259-2.474,2.524-3.722,3.775a1.2,1.2,0,0,1-2.1-.5,1.268,1.268,0,0,1,.411-1.259q2.334-2.368,4.663-4.738c.239-.242.468-.5.723-.718a1.143,1.143,0,0,1,1.491-.145c1.7,1.163,3.375,2.356,5.082,3.554l-.123.139-1.544,1.73C-352.772,1690.662-353.645,1690.021-354.521,1689.383Zm-5.093,16.772q-5.806,5.9-11.611,11.8a1.258,1.258,0,0,1-1.3.448,1.223,1.223,0,0,1-.642-1.936,2.809,2.809,0,0,1,.245-.272q5.848-5.947,11.7-11.892c.084-.085.174-.165.23-.217l1.587,1.835C-359.473,1706-359.539,1706.08-359.614,1706.156Zm21.273-5.711a1.212,1.212,0,0,1-1.2.741q-2.084,0-4.167,0-2.023,0-4.045,0a1.254,1.254,0,0,1-1.4-1.416c0-.411.008-.822,0-1.233a1.191,1.191,0,0,0-.757-1.159,1.142,1.142,0,0,0-1.309.265c-1.292,1.3-2.587,2.6-3.859,3.926a1.223,1.223,0,0,0,.106,1.823q2.612,2.665,5.232,5.323a1.329,1.329,0,0,1,.008,2.209q-3.461,3.519-6.92,7.037a1.249,1.249,0,0,1-1.38.426,1.222,1.222,0,0,1-.589-1.877,3.141,3.141,0,0,1,.326-.365q2.586-2.633,5.174-5.265a1.3,1.3,0,0,0-.009-2.124q-2.587-2.633-5.176-5.262a1.31,1.31,0,0,1,0-2.151q4.647-4.725,9.295-9.45a1.414,1.414,0,0,1,1.2-.56,1.256,1.256,0,0,1,1.083,1.36c.006,1.507,0,3.015,0,4.523,0,1.049.446,1.5,1.473,1.5,1.915,0,3.83-.007,5.744,0A1.223,1.223,0,0,1-338.341,1700.444Z" transform="translate(379.828 -1681.448)"/><path class="a" d="M-371.643,1698.78c1.4,0,2.807,0,4.21,0a1.764,1.764,0,0,0,1.966-1.724,1.755,1.755,0,0,0-1.946-1.743q-4.239-.006-8.479,0a1.751,1.751,0,0,0-1.936,1.752,1.755,1.755,0,0,0,1.916,1.715q1.066,0,2.134,0Z" transform="translate(377.828 -1685.711)"/><path class="a" d="M-372.207,1691.844q1.025,0,2.048,0l2.048,0,2.1,0q1.053,0,2.106,0a1.75,1.75,0,0,0,1.9-1.73,1.742,1.742,0,0,0-1.894-1.735q-4.153-.011-8.307,0a1.751,1.751,0,0,0-1.929,1.758A1.757,1.757,0,0,0-372.207,1691.844Z" transform="translate(377.828 -1686.339)"/><path class="a" d="M-365.983,1702.244l-2.048,0-2.1,0q-1.053,0-2.106,0a1.743,1.743,0,0,0-1.888,1.741,1.75,1.75,0,0,0,1.907,1.724q4.152.01,8.306,0A1.754,1.754,0,0,0-362,1704a1.754,1.754,0,0,0-1.935-1.753Q-364.96,1702.243-365.983,1702.244Z" transform="translate(376.828 -1685.939)"/></g></g></svg>