<svg xmlns="http://www.w3.org/2000/svg" width="44" height="43.935" viewBox="0 0 44 43.935"><defs><style>.a{fill:#1b2450;}</style></defs><g transform="translate(-780.133 -1892.744)"><path class="a" d="M788.4,1900.57c0,1.14-.005,2.254,0,3.368a4.2,4.2,0,0,0,.082.8,3.556,3.556,0,0,0,7.025-.294,6.007,6.007,0,0,0,.035-.705c0-1.049,0-2.1,0-3.165h13.176v.287c0,1.033,0,2.067,0,3.1a3.566,3.566,0,0,0,7.073.727,3.951,3.951,0,0,0,.071-.751c.008-1.017,0-2.034,0-3.051v-.3a.369.369,0,0,1,.1-.032c1.425,0,2.853-.043,4.275.028a4.193,4.193,0,0,1,3.886,4.076c0,.105,0,.211,0,.317q0,16.185,0,32.369a4.207,4.207,0,0,1-4.164,4.4q-17.836.014-35.671.006a4.227,4.227,0,0,1-4.161-4.136q0-.085,0-.171,0-16.282,0-32.564a4.235,4.235,0,0,1,3.088-4.162,4.464,4.464,0,0,1,1.113-.157c1.289-.019,2.578-.008,3.867-.007C788.258,1900.555,788.313,1900.563,788.4,1900.57Zm32.38,12.125H783.49v.26q0,11.618,0,23.237a2.108,2.108,0,0,0,2.142,2.177q16.5,0,33,0a2.283,2.283,0,0,0,.592-.078,2.109,2.109,0,0,0,1.55-2.122q0-11.62,0-23.238Z" transform="translate(0 -5.074)"/><path class="a" d="M806.257,1896.133c0,.69.006,1.38,0,2.069a1.325,1.325,0,0,1-2.592.365,1.425,1.425,0,0,1-.062-.4q-.007-2.041,0-4.08a1.326,1.326,0,0,1,2.594-.4,1.581,1.581,0,0,1,.062.437C806.261,1894.791,806.257,1895.462,806.257,1896.133Z" transform="translate(-13.118 0)"/><path class="a" d="M853.084,1896.13c0,.67,0,1.34,0,2.011a1.329,1.329,0,1,1-2.656.009q0-2.01,0-4.021a1.329,1.329,0,1,1,2.657.01v1.991Z" transform="translate(-39.3 -0.01)"/><path class="a" d="M852.4,1970.766v-3.015h4.061v3.015Z" transform="translate(-40.109 -41.86)"/><path class="a" d="M834.141,1970.766v-3.015H838.2v3.015Z" transform="translate(-29.976 -41.86)"/><path class="a" d="M815.871,1970.767v-3.014h4.058v3.014Z" transform="translate(-19.835 -41.861)"/><path class="a" d="M801.678,1970.766h-4.057v-3.017h4.057Z" transform="translate(-9.706 -41.858)"/><path class="a" d="M834.16,1952.841h4.051v3.019H834.16Z" transform="translate(-29.988 -33.538)"/><path class="a" d="M815.873,1955.871v-3.014h4.059v3.014Z" transform="translate(-19.836 -33.548)"/><path class="a" d="M856.468,1955.878h-4.063v-3.013h4.063Z" transform="translate(-40.112 -33.553)"/><path class="a" d="M797.609,1955.874v-3.01h4.06v3.01Z" transform="translate(-9.699 -33.553)"/><path class="a" d="M852.4,1940.968v-3.008h4.066v3.008Z" transform="translate(-40.11 -25.235)"/><path class="a" d="M838.208,1940.978h-4.055v-3.007h4.055Z" transform="translate(-29.983 -25.241)"/><path class="a" d="M819.949,1937.958v3.009h-4.057v-3.009Z" transform="translate(-19.847 -25.234)"/><path class="a" d="M797.61,1940.967v-3.011h4.06v3.011Z" transform="translate(-9.7 -25.233)"/></g></svg>