<svg xmlns="http://www.w3.org/2000/svg" width="44" height="44" viewBox="0 0 44 44"><defs><style>.a{fill:#1b2450;}</style></defs><g transform="translate(-857.643 -2155.599)"><path class="a" d="M899.918,2169.062a22.018,22.018,0,1,0,1.725,8.567A21.984,21.984,0,0,0,899.918,2169.062Zm-20.276,25.863h0v.826l-.017-.826a17.335,17.335,0,1,1,.02,0Z"/><path class="a" d="M884.806,2177.306c-.851-.851-1.725-1.725-2.592-2.587.006-3.861,0-5.9,0-9.587l-.055-.806a1.969,1.969,0,0,0-3.887.532c0,1.56,0,1.729,0,3.289v2.568c0,1.551,0,3.155,0,4.732a2.047,2.047,0,0,0,.633,1.531c1.012,1,2.035,2.026,3.025,3.017l1.425,1.427c.3.3.612.615.924.919a1.906,1.906,0,0,0,1.343.559,2.064,2.064,0,0,0,.658-.111,1.921,1.921,0,0,0,1.3-1.521,1.974,1.974,0,0,0-.608-1.8Z" transform="translate(0.078 0.957)"/></g></svg>