<svg xmlns="http://www.w3.org/2000/svg" width="149.941" height="6" viewBox="0 0 149.941 6"><defs><style>.a{fill:#436a5d;}.b{fill:#8cada2;}</style></defs><g transform="translate(-164.333 -2149)"><g transform="translate(164.333 2149)"><path class="a" d="M307.723,2155H170.884c-3.616,0-6.551-1.343-6.551-3s2.935-3,6.551-3H307.723c3.618,0,6.551,1.343,6.551,3S311.341,2155,307.723,2155Z" transform="translate(-164.333 -2149)"/></g><g transform="translate(165.233 2150.066)"><path class="b" d="M247.929,2154.066h-77.3c-2.977,0-5.393-.9-5.393-2s2.416-2,5.393-2h77.3c2.977,0,5.393.9,5.393,2S250.906,2154.066,247.929,2154.066Z" transform="translate(-165.233 -2150.066)"/></g></g></svg>