<svg xmlns="http://www.w3.org/2000/svg" width="116" height="116" viewBox="0 0 116 116"><defs><style>.a{fill:#b0e0e7;}.b{fill:#1b2450;}</style></defs><g transform="translate(-1399.475 54.364)"><g transform="translate(1399.475 -54.364)"><circle class="a" cx="58" cy="58" r="58" transform="translate(0 0)"/><path class="b" d="M1457.476-54.364a58,58,0,1,0,0,116,57.719,57.719,0,0,0,29.8-8.239l-15.593-21,8.642-6.416,15.623,21.042a57.847,57.847,0,0,0,19.526-43.387A58,58,0,0,0,1457.476-54.364Z" transform="translate(-1399.475 54.364)"/></g><path class="a" d="M1446.607-1.473l.784-10.734,31.865,2.333A32.4,32.4,0,0,0,1447-39.243a32.4,32.4,0,0,0-32.4,32.4,32.4,32.4,0,0,0,32.4,32.4A32.411,32.411,0,0,0,1478.475.86Z" transform="translate(10.476 10.476)"/></g></svg>