<svg xmlns="http://www.w3.org/2000/svg" width="57.453" height="45.67" viewBox="0 0 57.453 45.67"><defs><style>.a{fill:#1b2450;}</style></defs><g transform="translate(-1803.88 -1923.685)"><path class="a" d="M1861.329,1962.921c0,.924-.018,1.849,0,2.772a2.739,2.739,0,0,1-2.484,2.726,2.656,2.656,0,0,1-2.845-2.371,18.731,18.731,0,0,1,.005-2.261c.136-2.914.291-5.827.438-8.741.084-1.651.159-3.3.254-4.955a3.194,3.194,0,0,0-.888-2.529,3.294,3.294,0,0,1-.821-2.341c-.027-4.1-.052-8.207-.034-12.311.007-1.77.125-3.54.179-5.31a4.615,4.615,0,0,1,1.43-3.35,1.594,1.594,0,0,1,1.779-.452,1.8,1.8,0,0,1,1.24,1.65c.177,3.5.329,7,.485,10.5q.2,4.488.392,8.978.234,5.289.469,10.578.164,3.708.322,7.417Z"/><path class="a" d="M1806.568,1957.289c.053-1.484.109-2.968.159-4.452.066-2.018.212-4.038.163-6.053a5.8,5.8,0,0,0-1.349-3.812,6.65,6.65,0,0,1-1.656-4.323c-.03-1.44.086-2.884.166-4.325.077-1.391.2-2.779.286-4.169.1-1.6.2-3.2.291-4.8.014-.242.086-.5.346-.463.15.02.329.262.383.438a2.992,2.992,0,0,1,.072.812q.09,5.277.176,10.553c.01.562.225.722.753.632.243-.042.321-.145.318-.389-.015-1.172-.006-2.345-.02-3.518-.031-2.5-.073-5-.106-7.5a2.14,2.14,0,0,1,.06-.7c.055-.165.235-.288.359-.43.115.148.323.292.33.446.1,2.069.172,4.139.241,6.209.06,1.8.1,3.594.159,5.391a.467.467,0,0,0,.536.516c.4-.007.567-.177.558-.57q-.135-5.412-.269-10.824c-.005-.209-.005-.417-.009-.626-.005-.271.057-.538.375-.527.271.008.366.245.374.509.017.534.049,1.067.068,1.6q.171,4.766.339,9.53c0,.117.01.234.019.351a.569.569,0,0,0,.918.494.54.54,0,0,0,.2-.411c-.012-.9-.047-1.8-.082-2.7q-.171-4.393-.345-8.787c0-.078-.03-.177.007-.23.1-.138.21-.336.341-.357.1-.016.325.173.355.3a12.367,12.367,0,0,1,.208,1.348q.506,4.223,1,8.447c.143,1.228.3,2.456.389,3.687a5.667,5.667,0,0,1-.642,2.628,7.536,7.536,0,0,1-.914,1.579,6.711,6.711,0,0,0-1.132,4.9c.139,1.542.3,3.083.439,4.625q.272,3.014.523,6.03c.169,1.984.346,3.968.491,5.954a7.1,7.1,0,0,1-.034,1.821,2.465,2.465,0,0,1-2.539,2.046,2.505,2.505,0,0,1-2.49-2.111,6.65,6.65,0,0,1-.085-1.4c.031-1.237.1-2.474.139-3.71s.082-2.448.122-3.672Z"/><path class="a" d="M1833.062,1931a19.179,19.179,0,1,0,19.179,19.179A19.179,19.179,0,0,0,1833.062,1931Zm1.927,34.652h-4.578v-5.692h4.578Zm6.6-16.107c-2.114,2-6.725,2.973-6.725,6.5h-4.536a6.929,6.929,0,0,1,2.733-6.023c1.889-1.349,4.457-2.023,5.578-4.247a3.529,3.529,0,0,0-2.385-5.135c-2.573-.616-4.683,1.069-5.968,3.157l-3.587-2.475c2.722-6.5,13.606-7.445,16.551-.62A7.9,7.9,0,0,1,1841.59,1949.542Z"/></g></svg>