<svg xmlns="http://www.w3.org/2000/svg" width="44" height="43.991" viewBox="0 0 44 43.991"><defs><style>.a{fill:#1b2450;}</style></defs><g transform="translate(-576.144 -1396.69)"><path class="a" d="M576.144,1418.687a22,22,0,1,1,21.994,21.994A22,22,0,0,1,576.144,1418.687Zm40.743.538a18.74,18.74,0,1,0-19.295,18.185A18.741,18.741,0,0,0,616.887,1419.225Z"/><path class="a" d="M618.19,1430.836h-.729c-2.13,0-4.259.02-6.388-.012-.579-.009-.721.186-.714.736.027,2.129.008,4.258.007,6.387v.7H602.9v-.68c0-2.168-.013-4.337.008-6.5,0-.484-.143-.64-.631-.635-2.148.022-4.3.01-6.446.009h-.747v-7.471h.7c2.129,0,4.259-.024,6.387.013.612.011.751-.187.742-.765-.031-2.188,0-4.376-.02-6.563,0-.437.127-.572.564-.568q3.164.027,6.329,0c.456,0,.6.131.6.6-.023,2.188.007,4.376-.021,6.563-.007.551.134.744.714.735,2.246-.031,4.493-.012,6.739-.009.114,0,.227.022.379.039Z" transform="translate(-8.481 -8.415)"/></g></svg>