<svg xmlns="http://www.w3.org/2000/svg" width="44" height="44.106" viewBox="0 0 44 44.106"><defs><style>.a{fill:#1b2450;}</style></defs><g transform="translate(716.9 -1543.832)"><path class="a" d="M-672.993,1563.879c-.05-.591-.156-1.176-.237-1.758H-676.4c.094,1.3.28,2.551.262,3.8a18.289,18.289,0,0,1-7.336,14.816,18.077,18.077,0,0,1-14.437,3.665,18.055,18.055,0,0,1-11.13-6.207,18.243,18.243,0,0,1-4.4-15.332A17.873,17.873,0,0,1-707.3,1551.8a18.077,18.077,0,0,1,16.356-4.235,19.729,19.729,0,0,0,5.291.6l.366-.024a1.164,1.164,0,0,0,.028-.161c0-.516-.01-1.032.011-1.547a.445.445,0,0,0-.319-.481,21.571,21.571,0,0,0-16.958-.708,21.915,21.915,0,0,0-14.054,24.406,20.96,20.96,0,0,0,7.713,13.2c6.348,5.085,13.513,6.4,21.2,3.765a21.316,21.316,0,0,0,13.515-13.474A21.158,21.158,0,0,0-672.993,1563.879Z"/><path class="a" d="M-688.928,1555.516a.375.375,0,0,0,.428.273c1.624-.009,3.248,0,4.872,0h.33v-2.577h-2.4c.135-.142.21-.225.289-.3.8-.8,1.6-1.611,2.412-2.4a.357.357,0,0,0,.1-.469c-.239-.539-.469-1.082-.676-1.634a.4.4,0,0,0-.455-.292c-1.613.01-3.226.005-4.838.006-.111,0-.222.009-.344.015v2.549h2.422c-.954.952-1.834,1.838-2.725,2.712a.354.354,0,0,0-.1.466C-689.373,1554.4-689.14,1554.954-688.928,1555.516Z" transform="translate(9.1)"/><path class="a" d="M-696.125,1549.811c-.108,0-.216.012-.325.018v2.541h2.411c-.142.15-.218.232-.3.311-.8.8-1.6,1.612-2.412,2.405a.373.373,0,0,0-.1.5q.353.792.662,1.6a.4.4,0,0,0,.443.307c1.635-.013,3.27-.006,4.9-.007.1,0,.2-.013.287-.019v-2.563h-2.378c.122-.131.2-.213.273-.291.794-.8,1.583-1.6,2.39-2.38a.408.408,0,0,0,.1-.552c-.236-.515-.446-1.043-.649-1.572a.4.4,0,0,0-.444-.307C-692.877,1549.817-694.5,1549.81-696.125,1549.811Z" transform="translate(6.478 1.995)"/><path class="a" d="M-697.37,1553.458c-.244-.55-.477-1.1-.691-1.666a.379.379,0,0,0-.426-.282c-1.625.01-3.25.005-4.875.006-.108,0-.216.013-.326.021v2.541h2.427c-.962.96-1.843,1.847-2.734,2.722a.359.359,0,0,0-.093.472c.235.528.461,1.062.665,1.6a.421.421,0,0,0,.467.322c1.614-.013,3.228-.006,4.842-.007.11,0,.221-.01.339-.016V1556.6h-2.412c.95-.946,1.833-1.831,2.725-2.706A.333.333,0,0,0-697.37,1553.458Z" transform="translate(4.135 2.566)"/><path class="a" d="M-708.261,1562.733l-1.119,2.251c2.128,1.286,6.482,1.261,7.913-.03l-1.105-2.2A6.2,6.2,0,0,1-708.261,1562.733Z" transform="translate(2.536 5.425)"/><path class="a" d="M-689.539,1565c-.029-.071-.046-.124-.071-.173-.343-.688-.687-1.377-1.058-2.119a5.992,5.992,0,0,1-5.658,0c-.394.794-.765,1.539-1.136,2.286A8.518,8.518,0,0,0-689.539,1565Z" transform="translate(6.557 5.429)"/><path class="a" d="M-699.463,1569.413a1.7,1.7,0,0,0-1.7,1.684,1.717,1.717,0,0,0,1.709,1.71,1.717,1.717,0,0,0,1.695-1.691A1.7,1.7,0,0,0-699.463,1569.413Z" transform="translate(4.548 7.386)"/></g></svg>