<svg xmlns="http://www.w3.org/2000/svg" width="47.995" height="47.996" viewBox="0 0 47.995 47.996"><defs><style>.a{fill:#1b2450;}</style></defs><path class="a" d="M22.934,2089.537h-6.28a1.723,1.723,0,0,1-1.183-1.434c-.072-.383-.218-.753-.256-1.138-.072-.68-.408-.954-1.084-1.129-1.163-.3-2.282-.782-3.432-1.193a1.551,1.551,0,0,1,.1-.194q3.161-3.167,6.33-6.325a.614.614,0,0,1,.455-.118,14.272,14.272,0,0,0,3.776.014,12.112,12.112,0,0,0,6.122-2.476,12.638,12.638,0,0,0-10.732-22.27,12.377,12.377,0,0,0-8.951,8.2,12.985,12.985,0,0,0-.513,6.14.886.886,0,0,1-.216.641c-2.014,2.051-4.046,4.083-6.074,6.119-.072.072-.155.13-.344.287-.456-1.336-.907-2.593-1.311-3.863-.111-.344-.2-.571-.61-.627-.507-.07-1-.241-1.5-.342a1.77,1.77,0,0,1-1.476-1.2v-6.186a1.771,1.771,0,0,1,1.476-1.2c.55-.111,1.1-.235,1.634-.4a.689.689,0,0,0,.42-.392,21.157,21.157,0,0,1,2.424-5.8.481.481,0,0,0-.019-.588c-.317-.5-.614-1.014-.913-1.527a1.454,1.454,0,0,1,.245-2.063q1.833-1.844,3.677-3.677a1.446,1.446,0,0,1,2.024-.261c.54.313,1.066.649,1.614.95a.543.543,0,0,0,.451.033,22.242,22.242,0,0,1,5.936-2.469.583.583,0,0,0,.336-.363c.183-.643.317-1.3.484-1.95a1.439,1.439,0,0,1,1.513-1.2q2.7-.008,5.39,0a1.43,1.43,0,0,1,1.519,1.189c.165.634.33,1.266.455,1.907a.514.514,0,0,0,.447.451,20.29,20.29,0,0,1,5.761,2.393.479.479,0,0,0,.589,0c.511-.331,1.037-.635,1.564-.941a1.448,1.448,0,0,1,2.026.251q1.862,1.847,3.712,3.712a1.434,1.434,0,0,1,.245,1.987c-.311.54-.653,1.064-.946,1.614a.648.648,0,0,0,0,.531,21.121,21.121,0,0,1,2.393,5.814.511.511,0,0,0,.47.425c.625.125,1.243.29,1.861.449a1.431,1.431,0,0,1,1.21,1.546q.009,2.669,0,5.342a1.435,1.435,0,0,1-1.216,1.542c-.618.159-1.235.324-1.861.449a.508.508,0,0,0-.464.429,21.239,21.239,0,0,1-2.395,5.813.64.64,0,0,0,.01.53c.293.55.635,1.074.946,1.614a1.432,1.432,0,0,1-.254,1.985q-1.847,1.865-3.71,3.712a1.448,1.448,0,0,1-2.028.243c-.513-.3-1.029-.589-1.523-.916a.588.588,0,0,0-.672,0c-1.465.688-2.933,1.364-4.417,2.011-.532.231-1.27.218-1.614.593a3.515,3.515,0,0,0-.47,1.682A1.977,1.977,0,0,1,22.934,2089.537Z" transform="translate(4.25 -2041.542)"/><path class="a" d="M.53,2082.671H-.594a4.248,4.248,0,0,1-2.811-1.729,13.9,13.9,0,0,1-.845-1.927V2077.8a6.671,6.671,0,0,1,2.137-3.265c4.081-4.05,8.135-8.125,12.21-12.181a.759.759,0,0,0,.231-.886,9.437,9.437,0,0,1,.352-6.632,9.843,9.843,0,0,1,11.551-5.706,1.419,1.419,0,0,1,1.127,1.228,1.508,1.508,0,0,1-.538,1.286c-1.1,1.109-2.228,2.193-3.275,3.349a2.717,2.717,0,0,0-.035,3.382,2.807,2.807,0,0,0,4.306.2c1.041-1.014,2.047-2.063,3.092-3.073a1.39,1.39,0,0,1,2.379.676,9.885,9.885,0,0,1,.074,4.639,9.683,9.683,0,0,1-12.482,7.268.663.663,0,0,0-.765.207c-4.112,4.128-8.242,8.238-12.346,12.375A6.26,6.26,0,0,1,.53,2082.671Z" transform="translate(4.25 -2034.676)"/></svg>