<svg xmlns="http://www.w3.org/2000/svg" width="354" height="40.89" viewBox="0 0 354 40.89"><defs><style>.a{isolation:isolate;}.b{fill:#f26d42;}</style></defs><g class="a" transform="translate(-941.619 -1923.488)"><path class="b" d="M989.258,1924.218V1963.8h-8.224v-38.9l-9.981,38.9H959.88l-10.038-38.9v38.9h-8.224v-39.586h16.05l7.883,32.723,7.826-32.723Z" transform="translate(0 -0.106)"/><path class="b" d="M1015.135,1924.218V1963.8h-8.281v-39.586Z" transform="translate(-9.487 -0.106)"/><path class="b" d="M1043.257,1923.488a21.3,21.3,0,0,1,6.465.936,15.965,15.965,0,0,1,4.792,2.325,17.108,17.108,0,0,1,3.177,3.091,14.423,14.423,0,0,1,1.9,3.005,10.108,10.108,0,0,1,.737,2.325l-7.883,2.041a8.831,8.831,0,0,0-2.665-4.735q-2.213-2.183-6.522-2.184a10.746,10.746,0,0,0-8.423,3.517q-3.147,3.517-3.147,10.039t3.2,10.094a10.833,10.833,0,0,0,8.478,3.574,12.563,12.563,0,0,0,6.182-1.39,7.529,7.529,0,0,0,3.4-3.432v-4.877h-12.307v-6.862h20.133v11.8a14.9,14.9,0,0,1-6.068,8.309,19.255,19.255,0,0,1-11.343,3.262q-8.848,0-14.519-5.644t-5.67-14.83q0-9.132,5.615-14.746T1043.257,1923.488Z" transform="translate(-11.861)"/><path class="b" d="M1092.828,1923.488a21.3,21.3,0,0,1,6.466.936,15.97,15.97,0,0,1,4.792,2.325,17.082,17.082,0,0,1,3.177,3.091,14.439,14.439,0,0,1,1.9,3.005,10.169,10.169,0,0,1,.738,2.325l-7.883,2.041a8.819,8.819,0,0,0-2.666-4.735q-2.212-2.183-6.522-2.184a10.744,10.744,0,0,0-8.422,3.517q-3.147,3.517-3.148,10.039t3.2,10.094a10.835,10.835,0,0,0,8.478,3.574,12.563,12.563,0,0,0,6.182-1.39,7.525,7.525,0,0,0,3.4-3.432v-4.877h-12.307v-6.862h20.133v11.8a14.9,14.9,0,0,1-6.068,8.309,19.253,19.253,0,0,1-11.343,3.262,19.714,19.714,0,0,1-14.518-5.644q-5.671-5.643-5.671-14.83,0-9.132,5.615-14.746T1092.828,1923.488Z" transform="translate(-19.07)"/><path class="b" d="M1144.486,1962.492a14.538,14.538,0,0,1-19.906,0q-3.715-3.942-3.715-10.464t3.715-10.464a14.539,14.539,0,0,1,19.906,0q3.714,3.944,3.715,10.464T1144.486,1962.492Zm-14.207-4.537a5.318,5.318,0,0,0,8.507,0,12.239,12.239,0,0,0,0-11.853,5.318,5.318,0,0,0-8.507,0,12.233,12.233,0,0,0,0,11.853Z" transform="translate(-26.066 -2.056)"/><path class="b" d="M1167.106,1924.218V1963.8h-8.281v-39.586Z" transform="translate(-31.587 -0.106)"/><path class="b" d="M1206.087,1924.218h8.336V1963.8h-16.56l-11.512-38.848V1963.8h-8.281v-39.586h15.71l12.307,39.018Z" transform="translate(-34.385 -0.106)"/><path class="b" d="M1244.107,1924.218q9.472,0,15.341,5.586a20.058,20.058,0,0,1,0,28.357q-5.87,5.644-15.341,5.643H1230.1v-39.586Zm0,6.806h-5.784V1957h5.784q6.012,0,9.358-3.4t3.347-9.641q0-6.239-3.347-9.585T1244.107,1931.024Z" transform="translate(-41.952 -0.106)"/><path class="b" d="M1304.508,1924.218v6.806h-18.6v8.96H1301.9v6.806h-15.993V1957h18.828v6.806h-27.052v-39.586Z" transform="translate(-48.871 -0.106)"/><path class="b" d="M1340.5,1963.8l-9.074-12.76-9.017,12.76h-9.017l13.5-20.134-13.044-19.452h9.188l8.451,11.909,8.506-11.909h9.074l-13.044,19.4,13.668,20.19Z" transform="translate(-54.064 -0.106)"/></g></svg>