<svg xmlns="http://www.w3.org/2000/svg" width="16.288" height="28.951" viewBox="0 0 16.288 28.951"><defs><style>.a{fill:#f26d42;}</style></defs><path class="a" d="M-40.576,1649.086l.468,0a.914.914,0,0,1,.671,1.019v6.372c0,1.046.01,2.095-.008,3.143,0,.263.079.3.315.3,1.954-.008,3.91.019,5.862-.017a.977.977,0,0,1,.941,1.457q-3.581,7.982-7.109,15.988a.931.931,0,0,1-1.542.423,1.048,1.048,0,0,1-.271-.8v-9.4c0-.4,0-.4-.406-.4q-2.915,0-5.833,0a.924.924,0,0,1-.995-.742,1.083,1.083,0,0,1,.126-.682l3.674-8.268q1.716-3.864,3.433-7.725A.959.959,0,0,1-40.576,1649.086Z" transform="translate(48.499 -1649.082)"/></svg>