<svg xmlns="http://www.w3.org/2000/svg" width="38.646" height="39.282" viewBox="0 0 38.646 39.282"><defs><style>.a{fill:#1b2450;}</style></defs><path class="a" d="M1138.082,2017.069c.177-10.98,8.559-19.646,19.383-19.62a19.644,19.644,0,0,1-.087,39.282C1146.568,2036.7,1138.25,2028.05,1138.082,2017.069Zm32.993-7.107a3.9,3.9,0,0,0-.336-.4c-1.231-1.136-2.467-2.267-3.7-3.4-.379-.348-.467-.348-.789.068q-3.6,4.647-7.187,9.294-1.7,2.2-3.4,4.407c-.155.2-.285.312-.524.1-.887-.8-1.785-1.586-2.68-2.377q-1.619-1.432-3.241-2.865c-.234-.206-.446-.307-.683.016q-1.679,2.277-3.372,4.54a.367.367,0,0,0,.054.572c.4.344.787.691,1.182,1.037q4.758,4.182,9.521,8.364c.456.4.524.39.88-.088q2.173-2.918,4.344-5.841,4.829-6.49,9.654-12.984C1170.888,2010.27,1170.967,2010.13,1171.074,2009.962Z" transform="translate(-1138.082 -1997.45)"/></svg>