<svg xmlns="http://www.w3.org/2000/svg" width="44" height="43.998" viewBox="0 0 44 43.998"><defs><style>.a{fill:#1b2450;}</style></defs><path class="a" d="M805.64,860.5a22,22,0,1,0,21.94,22A21.941,21.941,0,0,0,805.64,860.5Zm-15.923,13.376a9.67,9.67,0,0,0,8.2-3.89c.529,1.687-.716,3.7-2.793,4.689S790.7,875.349,789.717,873.875Zm2.731,12.058a.891.891,0,0,1,.519-1.309c1.405-.677,2.823-1.327,4.234-1.991.208-.1.41-.206.728-.366-1.792-.651-3.454-1.257-5.117-1.858-.48-.174-.827-.452-.781-1.011a.946.946,0,0,1,1.3-.852c2.478.881,4.956,1.764,7.41,2.708a1.293,1.293,0,0,1,.667.934,1.186,1.186,0,0,1-.612.877c-2.321,1.135-4.666,2.219-7.01,3.306A.9.9,0,0,1,792.448,885.934Zm23.947,10.459c-.351.4-.848.362-1.417-.109-.84-.695-1.679-1.39-2.565-2.124-.829.734-1.617,1.447-2.424,2.138-.618.53-.981.511-1.549-.094-.668-.711-1.308-1.451-1.973-2.192-1.391.9-2.55,1.635-3.684,2.4a.98.98,0,0,1-1.373-.1c-.788-.719-1.591-1.422-2.434-2.173-.871.67-1.714,1.317-2.556,1.965-.111.084-.212.182-.324.265-.458.341-.927.461-1.37-.009a1.1,1.1,0,0,1,.167-1.556c.793-.646,1.619-1.255,2.431-1.878.314-.241.649-.457.939-.724a.973.973,0,0,1,1.521.048c.778.73,1.594,1.42,2.427,2.157,1.153-.753,2.293-1.467,3.4-2.233a1.058,1.058,0,0,1,1.588.129c.655.689,1.367,1.323,2.086,2.012.809-.712,1.6-1.389,2.373-2.1a.924.924,0,0,1,1.408-.06c1.043.886,2.12,1.733,3.166,2.615A1.126,1.126,0,0,1,816.395,896.392Zm1.72-15.963c-1.634.605-3.271,1.2-5.061,1.856,1.75.82,3.35,1.562,4.944,2.32.653.311.846.792.554,1.349a.857.857,0,0,1-1.219.464c-2.407-1.11-4.815-2.22-7.2-3.378a1.082,1.082,0,0,1-.527-.859,1.382,1.382,0,0,1,.68-.926c1.151-.5,2.351-.88,3.531-1.31,1.2-.436,2.4-.879,3.605-1.314.79-.286,1.234-.127,1.477.516C819.125,879.741,818.889,880.143,818.115,880.43Zm-2.095-5.756c-2.073-.979-3.362-3.082-2.774-4.655a9.657,9.657,0,0,0,8.15,3.852C820.551,875.333,818.107,875.66,816.02,874.674Z" transform="translate(-783.58 -860.499)"/></svg>