<svg xmlns="http://www.w3.org/2000/svg" width="48.011" height="44.885" viewBox="0 0 48.011 44.885"><defs><style>.a{fill:#1b2450;}</style></defs><path class="a" d="M-136.891,2047.861c.354.472.741.981,1.123,1.494a13.848,13.848,0,0,0,2.621,2.634,9.309,9.309,0,0,0,2.66,1.446.46.46,0,0,1,.261.347c.008,2.435.081,4.871-.035,7.3a7.864,7.864,0,0,1-2.205,4.946,9.144,9.144,0,0,1-5.482,2.986,17.7,17.7,0,0,1-2.564.258c-2.234.035-4.467.009-6.7.012a10.424,10.424,0,0,1-5.356-1.377,8.471,8.471,0,0,1-4.374-5.982,24.805,24.805,0,0,1-.2-3.55c-.032-1.505-.008-3.013-.008-4.546,1.486-.195,2.941-.35,4.383-.58,1.531-.246,3.064-.507,4.565-.859s2.974-.773,4.421-1.256a34.573,34.573,0,0,0,3.823-1.515C-138.889,2049.112-137.91,2048.454-136.891,2047.861Zm-.425,9.8a2.34,2.34,0,0,1,.242-.088c.855-.149,1.711-.295,2.564-.448.54-.1.8-.407.734-.842-.068-.417-.435-.621-1.013-.554-.2.023-.4.056-.595.1-1.315.261-2.639.493-3.942.8-.676.157-.787.715-.279,1.157a11.81,11.81,0,0,0,.986.734c.81.563,1.609,1.143,2.458,1.659a1.07,1.07,0,0,0,.864.023.822.822,0,0,0,.3-.7,1.036,1.036,0,0,0-.455-.58C-136.034,2058.495-136.65,2058.106-137.316,2057.663Zm-12.676-.038c-.742.5-1.37.927-2,1.352a.732.732,0,0,0-.287,1.073.874.874,0,0,0,1.234.06q1.373-.917,2.724-1.857a5.1,5.1,0,0,0,.686-.562.6.6,0,0,0-.159-.988,2.461,2.461,0,0,0-.673-.257q-2.015-.374-4.037-.709c-.6-.1-.957.09-1.043.5q-.152.728.764.891C-151.912,2057.288-151.043,2057.44-149.992,2057.625Zm6.382,3.719a3.653,3.653,0,0,0-3.393,1.932.689.689,0,0,0,.3,1.063.828.828,0,0,0,1.089-.44,2.074,2.074,0,0,1,1.035-.968,2.234,2.234,0,0,1,2.84.969c.3.472.659.616,1.088.439a.69.69,0,0,0,.309-1.063A3.577,3.577,0,0,0-143.61,2061.344Zm-.086-1.83c.437,0,.874,0,1.31,0a.8.8,0,0,0,.854-.734c.007-.406-.317-.667-.857-.671-.839,0-1.679,0-2.518,0-.571,0-.927.267-.915.673a.88.88,0,0,0,.918.734C-144.5,2059.518-144.1,2059.515-143.7,2059.515Z" transform="translate(161.596 -2033.641)"/><path class="a" d="M-157.71,2059.576c-.875-.209-.907-.236-.9-.927.022-1.832,0-3.667.088-5.5a10.709,10.709,0,0,1,1.329-4.522,12.231,12.231,0,0,1,3.876-4.462c.573-.4,1.161-.777,1.767-1.133a13.915,13.915,0,0,1,7.3-1.7c1.48.01,2.961-.02,4.436.043a20.963,20.963,0,0,1,2.528.352.723.723,0,0,1,.412.274c.226.32.412.664.656,1.071-.379,0-.7-.006-1.026,0-.835.019-1.2.59-.749,1.211.829,1.147,1.681,2.287,2.511,3.434s1.656,2.3,2.463,3.456c.437.626.771.85,1.217.739s.556-.391.513-1.155q-.117-2.065-.224-4.13c-.007-.126,0-.254,0-.389.515-.036.995-.081,1.473-.093a.43.43,0,0,1,.292.195q1,1.591,1.965,3.2a.561.561,0,0,1-.116.681c-.7.91-1.357,1.844-2.036,2.763a.686.686,0,0,0,.063.937.821.821,0,0,0,1.008.108c.518-.229,1.026-.475,1.541-.707.128-.059.269-.1.48-.17v5.5c0,.7,0,.7-.865.915,0-.669,0-1.324,0-1.978,0-.752-.194-.857-.915-1.073a8.512,8.512,0,0,1-4.233-2.886c-.776-.949-1.453-1.956-2.162-2.945a.826.826,0,0,0-1.329-.181,16.755,16.755,0,0,1-5.753,3.1c-1.539.511-3.107.959-4.663,1.438a42.779,42.779,0,0,1-8.539,1.48c-.543.053-1.084.121-1.627.183-.521.06-.777.3-.782.759C-157.717,2058.16-157.71,2058.849-157.71,2059.576Z" transform="translate(160.639 -2037.949)"/><path class="a" d="M-158.593,2067.136v-10.258c.392.063.756.1,1.106.191a.452.452,0,0,1,.252.278,10.114,10.114,0,0,0,2.687,4.21,10.888,10.888,0,0,0,5.653,2.886l1.943.368v.554c-.6,0-1.211-.012-1.825,0-.428.01-.852.054-.988.513-.161.539.178.938.817.936.555,0,1.109,0,1.662-.032a.471.471,0,0,1,.575.391,3.723,3.723,0,0,0,2.828,2.612,4.313,4.313,0,0,0,4-.859,3.384,3.384,0,0,0,1.244-2.206,17.836,17.836,0,0,1,3.072.266,4.87,4.87,0,0,1,3.587,3.146c.267.781.422,1.589.638,2.433h-22.728c.312-1.634.526-3.281,2.034-4.492.2-.158.425-.287.623-.447a.713.713,0,0,0,.1-1,.774.774,0,0,0-1.069-.083,3.054,3.054,0,0,1-2.355.595C-156.006,2067.121-157.281,2067.136-158.593,2067.136Z" transform="translate(160.65 -2027.683)"/><path class="a" d="M-134.859,2056.877v10.234c-.169.01-.329.024-.49.024-1.478,0-2.956.008-4.434,0a1.117,1.117,0,0,1-.6-.145,7.788,7.788,0,0,0-5.342-1.628c-.247.017-.5,0-.786,0v-.536c.839-.167,1.676-.325,2.509-.5a10.266,10.266,0,0,0,4.68-2.355,9.68,9.68,0,0,0,3.077-4.541.524.524,0,0,1,.531-.418C-135.445,2056.993-135.186,2056.932-134.859,2056.877Z" transform="translate(168.633 -2027.683)"/><path class="a" d="M-144.559,2045.464c.39,0,.674,0,.96,0,.756-.017,1.123-.531.769-1.121-.558-.93-1.146-1.845-1.722-2.768l-1.023-1.636h4.833l.867,5.751c-.362,0-.661-.006-.958,0-.619.017-.9.254-.882.789.037,1,.1,2,.156,3.135Z" transform="translate(169.25 -2038.876)"/><path class="a" d="M-145.345,2061.62a5.338,5.338,0,0,1-.3,2.451,2.671,2.671,0,0,1-2.358,1.314,2.677,2.677,0,0,1-2.323-1.288,5.309,5.309,0,0,1-.289-2.477Z" transform="translate(165.917 -2024.55)"/><path class="a" d="M-156.9,2058.135a3.366,3.366,0,0,1-2.763-4.266,1.483,1.483,0,0,1,1.39-.9,1.5,1.5,0,0,1,1.315,1.055,11.73,11.73,0,0,0-1.556.013c-.6.08-.83.445-.707.926.095.379.45.536,1.028.458.819-.111,1.294.231,1.294.934C-156.9,2056.943-156.9,2057.526-156.9,2058.135Z" transform="translate(159.831 -2030.264)"/><path class="a" d="M-140,2058.134c0-.714-.02-1.4.007-2.089.018-.445.634-.7,1.395-.591a.763.763,0,0,0,.908-.457.692.692,0,0,0-.44-.88.815.815,0,0,0-.284-.083c-.493-.008-.988,0-1.523,0-.038-.478.447-.726.85-.943a1.183,1.183,0,0,1,1.172.073c.864.5.835,1.249.789,2A3.4,3.4,0,0,1-140,2058.134Z" transform="translate(172.931 -2030.269)"/><path class="a" d="M-136.167,2048.309c.369-.5.254-.9-.316-1.222-.473-.264-.937-.544-1.418-.825l6.06-6.964c.276.181.525.364.8.511,1.506.814,3.024,1.613,4.529,2.428.425.231.817.507,1.224.76-.591.329-1.128.648-1.686.932-1.3.659-2.612,1.3-3.913,1.956-.533.268-1.059.545-1.574.837-.874.493-.839,1.074.078,1.548.485.251.967.5,1.561.814-2.906,1.259-5.7,2.473-8.621,3.736.241-.367.394-.626.573-.871C-137.973,2050.735-137.068,2049.525-136.167,2048.309Z" transform="translate(173.301 -2039.298)"/></svg>